# xmcd CD database file
#
# Track frame offsets:
#	150
#	31808
#	83240
#	131288
#	170968
#	193408
#	211458
#	231503
#	259915
#
# Disc length: 3989 seconds
#
# Revision: 2
# Processed by: cddbd v1.4b41PL1 Copyright (c) Steve Scherf et al.
# Submitted via: Feurio! 1.60 - http://www.feurio.com
#
DISCID=730f9309,850f9309
DTITLE=Jimi Hendrix - Live USA II
DYEAR=1900
DGENRE=
TTITLE0=Wild Thing
TTITLE1=Spanish Castle Magic
TTITLE2=Red House
TTITLE3=Foxy Lady
TTITLE4=Foxy Lady
TTITLE5=Hey Joe
TTITLE6=Hound Dog
TTITLE7=Beginning of a Jam
TTITLE8=Funky Jam
EXTD=
EXTT0=
EXTT1=
EXTT2=
EXTT3=
EXTT4=
EXTT5=
EXTT6=
EXTT7=
EXTT8=
PLAYORDER=
